<svg xmlns="http://www.w3.org/2000/svg" viewBox="0 0 101.82 101.78"><defs><style>.cls-1{fill:#1daa99;}.cls-2{fill:#fff;}.cls-3{fill:#fc7572;}.cls-4{fill:#f44545;}</style></defs><title>Recurso 49</title><g id="Capa_2" data-name="Capa 2"><g id="Capa_1-2" data-name="Capa 1"><ellipse class="cls-1" cx="50.91" cy="50.89" rx="50.91" ry="50.89"/><circle class="cls-2" cx="47.7" cy="28.82" r="3.36"/><circle class="cls-2" cx="42.85" cy="29.02" r="0.46"/><circle class="cls-2" cx="52.5" cy="28.62" r="0.46"/><circle class="cls-2" cx="47.5" cy="23.99" r="0.46"/><circle class="cls-2" cx="47.89" cy="33.64" r="0.46"/><path class="cls-3" d="M49.69,49.84c-11,12.19-20.38,25.8-15,26.94,3.47.73,13.24-7.64,24.08-18.45,20.75-20.7,19.4-24.58,15.49-26.08C69.83,30.56,66.51,31.27,49.69,49.84Z"/><path class="cls-4" d="M33.71,70.38c3.44.64,6.91,1.1,10.36,1.65l-5.75,5.24a3.33,3.33,0,0,1-3.64.72l-.18-.09-8.91-5.19a.76.76,0,0,1-.26-1s.75-1.08.75-1.09c.34-.49.63-1,1.22-1.25a4.87,4.87,0,0,1,2.68.3c1,.22,2,.43,3,.62Z"/><path class="cls-3" d="M37.44,50.33a.85.85,0,0,0-.13,1.16L51.86,54l6.08,16.69a.85.85,0,0,0,1.15-.21s2.14-2.31,2.15-2.31c1.09-1.18.63-2.52.46-3.77-.22-1.6-.45-3.21-.68-4.81q-.56-3.87-1.14-7.74c-.14-.9-.15-2.08-.88-2.65a4.33,4.33,0,0,0-2.23-.64"/><path class="cls-4" d="M46.08,53.31l-9.82-.68s-.85,0,0-1,1.56-2.79,5.41-3.22C47.83,47.72,52,47.28,52,47.28l-5.45,6.06"/><path class="cls-2" d="M72.52,37.72l2.92-3.42a.94.94,0,0,0-.31-1.58,3.6,3.6,0,0,0-2.08-.65,4,4,0,0,0-2.3,1.43c-.91,1-1.9,2-2.74,3a1.28,1.28,0,0,0-.32.85c0,.5.51.85,1,1.09A3,3,0,0,0,72.52,37.72Z"/><path class="cls-2" d="M60.84,46.46l1.1,1a1,1,0,0,0,1.41,0l.29-.31a1,1,0,0,0,0-1.41l-1.1-1a1,1,0,0,0-1.41.05l-.29.31A1,1,0,0,0,60.84,46.46Z"/><path class="cls-2" d="M58.22,49.18l1.1,1a1,1,0,0,0,1.41-.05l.29-.31A1,1,0,0,0,61,48.43l-1.1-1a1,1,0,0,0-1.41.05l-.29.31A1,1,0,0,0,58.22,49.18Z"/><path class="cls-2" d="M55.35,52.15l1.1,1a1,1,0,0,0,1.41-.05l.29-.31a1,1,0,0,0,0-1.41l-1.1-1a1,1,0,0,0-1.41,0l-.29.31A1,1,0,0,0,55.35,52.15Z"/><path class="cls-2" d="M52.51,55.09l1.1,1a1,1,0,0,0,1.41,0l.29-.31a1,1,0,0,0-.05-1.41l-1.1-1a1,1,0,0,0-1.41,0l-.29.31A1,1,0,0,0,52.51,55.09Z"/><path class="cls-2" d="M49.89,57.81l1.1,1a1,1,0,0,0,1.41,0l.29-.31a1,1,0,0,0,0-1.41l-1.1-1a1,1,0,0,0-1.41.05l-.29.31A1,1,0,0,0,49.89,57.81Z"/><path class="cls-2" d="M47,60.79l1.1,1a1,1,0,0,0,1.41-.05l.29-.31a1,1,0,0,0,0-1.41l-1.1-1a1,1,0,0,0-1.41,0l-.29.31A1,1,0,0,0,47,60.79Z"/></g></g></svg>